<svg width="167" height="299" viewBox="0 0 167 299" fill="none" xmlns="http://www.w3.org/2000/svg">
<g opacity="0.6">
<path d="M170.267 146.086L155.994 134.608L153.851 137.242L154.803 138.007C155.17 137.759 155.671 137.767 156.034 138.059C156.479 138.416 156.548 139.064 156.188 139.506C155.829 139.948 155.177 140.017 154.732 139.659C154.369 139.368 154.257 138.882 154.424 138.473L153.472 137.708L151.609 139.997L152.561 140.762C152.928 140.515 153.43 140.522 153.793 140.814C154.237 141.172 154.306 141.82 153.947 142.262C153.587 142.704 152.935 142.772 152.491 142.415C152.127 142.123 152.015 141.637 152.182 141.229L151.23 140.463L149.368 142.753L150.319 143.518C150.687 143.27 151.188 143.278 151.551 143.57C151.995 143.927 152.064 144.575 151.705 145.017C151.345 145.459 150.694 145.528 150.249 145.17C149.886 144.879 149.774 144.393 149.94 143.984L148.989 143.219L147.126 145.508L148.078 146.273C148.445 146.026 148.947 146.033 149.31 146.325C149.754 146.683 149.823 147.331 149.464 147.773C149.104 148.215 148.452 148.283 148.008 147.926C147.644 147.634 147.532 147.148 147.699 146.74L146.747 145.974L144.885 148.264L145.836 149.029C146.204 148.781 146.705 148.789 147.068 149.081C147.512 149.438 147.582 150.086 147.222 150.528C146.862 150.97 146.211 151.039 145.766 150.681C145.403 150.39 145.291 149.904 145.457 149.495L144.506 148.73L142.643 151.019L143.595 151.784C143.962 151.537 144.463 151.544 144.826 151.836C145.271 152.194 145.34 152.841 144.98 153.284C144.621 153.726 143.969 153.794 143.524 153.437C143.161 153.145 143.049 152.659 143.216 152.251L142.264 151.485L140.401 153.774L141.353 154.54C141.72 154.292 142.221 154.3 142.585 154.592C143.029 154.949 143.098 155.597 142.738 156.039C142.379 156.481 141.727 156.55 141.282 156.192C140.919 155.9 140.807 155.415 140.974 155.006L140.022 154.241L138.159 156.53L139.111 157.295C139.478 157.048 139.98 157.055 140.343 157.347C140.787 157.705 140.856 158.353 140.497 158.795C140.137 159.237 139.486 159.305 139.041 158.948C138.677 158.656 138.565 158.17 138.732 157.762L137.78 156.996L135.918 159.285L136.869 160.051C137.237 159.803 137.738 159.811 138.101 160.103C138.546 160.46 138.615 161.108 138.255 161.55C137.895 161.992 137.244 162.061 136.799 161.703C136.436 161.411 136.324 160.926 136.49 160.517L135.539 159.752L133.676 162.041L134.628 162.806C134.995 162.559 135.496 162.566 135.859 162.858C136.304 163.216 136.373 163.864 136.013 164.306C135.654 164.748 135.002 164.816 134.557 164.459C134.194 164.167 134.082 163.681 134.249 163.272L133.297 162.507L131.435 164.796L132.386 165.562C132.754 165.314 133.255 165.322 133.618 165.614C134.063 165.971 134.132 166.619 133.772 167.061C133.412 167.503 132.76 167.572 132.316 167.214C131.953 166.922 131.841 166.437 132.007 166.028L131.056 165.263L129.193 167.552L130.145 168.317C130.512 168.07 131.013 168.077 131.376 168.369C131.821 168.727 131.89 169.375 131.53 169.817C131.171 170.259 130.519 170.327 130.074 169.97C129.711 169.678 129.599 169.192 129.766 168.783L128.814 168.018L126.951 170.307L127.903 171.073C128.27 170.825 128.771 170.833 129.135 171.125C129.579 171.482 129.648 172.13 129.289 172.572C128.929 173.014 128.277 173.083 127.832 172.725C127.469 172.433 127.357 171.948 127.524 171.539L126.572 170.774L124.709 173.063L125.661 173.828C126.028 173.581 126.53 173.588 126.893 173.88C127.337 174.237 127.406 174.886 127.047 175.328C126.687 175.77 126.036 175.838 125.591 175.481C125.228 175.189 125.116 174.703 125.282 174.294L124.33 173.529L122.551 175.717L165.657 210.382L170.266 184.518V146.091L170.267 146.086Z" fill="#FFF0DA"/>
<path d="M164.078 150.882L139.403 181.208L139.443 181.24L164.118 150.914L164.078 150.882Z" fill="#8ABCE6"/>
<path d="M166.929 153.157L142.254 183.483L142.295 183.516L166.97 153.19L166.929 153.157Z" fill="#8ABCE6"/>
<path d="M169.779 155.433L145.104 185.759L145.145 185.792L169.82 155.466L169.779 155.433Z" fill="#8ABCE6"/>
<path d="M170.267 160.61L147.956 188.032L147.997 188.065L170.267 160.692V160.61Z" fill="#8ABCE6"/>
<path d="M170.267 166.389L150.807 190.308L150.848 190.341L170.267 166.472V166.389Z" fill="#8ABCE6"/>
<path d="M170.267 172.169L153.657 192.584L153.698 192.616L170.267 172.252V172.169Z" fill="#8ABCE6"/>
<path d="M170.267 177.948L156.509 194.86L156.549 194.892L170.267 178.031V177.948Z" fill="#8ABCE6"/>
<path d="M170.267 183.728L159.359 197.135L159.4 197.168L170.267 183.811V183.728Z" fill="#8ABCE6"/>
<path d="M169.127 190.909L162.21 199.411L162.251 199.444L169.109 191.015L169.127 190.909Z" fill="#8ABCE6"/>
<path d="M167.809 198.31L165.062 201.687L165.102 201.72L167.79 198.416L167.809 198.31Z" fill="#8ABCE6"/>
<path d="M146.604 319.738L158.709 304.774L155.668 302.518L154.861 303.516C155.155 303.902 155.17 304.429 154.863 304.81C154.486 305.275 153.766 305.346 153.256 304.968C152.746 304.59 152.638 303.905 153.015 303.439C153.322 303.058 153.859 302.941 154.323 303.117L155.13 302.119L152.486 300.159L151.679 301.156C151.974 301.543 151.989 302.069 151.681 302.45C151.304 302.916 150.585 302.987 150.075 302.609C149.565 302.23 149.457 301.545 149.833 301.079C150.141 300.699 150.677 300.582 151.142 300.758L151.949 299.76L149.305 297.799L148.498 298.797C148.792 299.183 148.808 299.71 148.5 300.091C148.123 300.556 147.403 300.627 146.893 300.249C146.383 299.871 146.275 299.186 146.652 298.72C146.96 298.339 147.496 298.222 147.96 298.398L148.767 297.4L146.124 295.44L145.317 296.437C145.611 296.824 145.626 297.351 145.318 297.731C144.942 298.197 144.222 298.268 143.712 297.89C143.202 297.511 143.094 296.826 143.47 296.36C143.778 295.98 144.315 295.863 144.779 296.039L145.586 295.041L142.942 293.08L142.135 294.078C142.429 294.464 142.445 294.991 142.137 295.372C141.76 295.837 141.041 295.908 140.531 295.53C140.021 295.152 139.912 294.467 140.289 294.001C140.597 293.62 141.133 293.503 141.597 293.679L142.404 292.681L139.761 290.721L138.954 291.718C139.248 292.105 139.264 292.632 138.956 293.012C138.579 293.478 137.859 293.549 137.349 293.171C136.839 292.792 136.731 292.107 137.108 291.641C137.416 291.261 137.952 291.144 138.416 291.32L139.223 290.322L136.579 288.361L135.772 289.359C136.067 289.745 136.082 290.272 135.774 290.653C135.398 291.118 134.678 291.189 134.168 290.811C133.658 290.433 133.55 289.748 133.926 289.282C134.234 288.901 134.771 288.784 135.235 288.96L136.042 287.962L133.398 286.002L132.591 286.999C132.885 287.386 132.901 287.912 132.593 288.293C132.216 288.759 131.497 288.83 130.986 288.452C130.476 288.073 130.368 287.388 130.745 286.922C131.053 286.542 131.589 286.425 132.053 286.601L132.86 285.603L130.217 283.642L129.41 284.64C129.704 285.026 129.719 285.553 129.411 285.934C129.035 286.399 128.315 286.47 127.805 286.092C127.295 285.714 127.187 285.029 127.564 284.563C127.871 284.182 128.408 284.065 128.872 284.241L129.679 283.243L127.035 281.283L126.228 282.28C126.523 282.667 126.538 283.193 126.23 283.574C125.853 284.04 125.134 284.111 124.624 283.733C124.114 283.354 124.006 282.669 124.382 282.203C124.69 281.823 125.226 281.706 125.691 281.882L126.498 280.884L123.854 278.923L123.047 279.921C123.341 280.307 123.357 280.834 123.049 281.214C122.672 281.68 121.953 281.751 121.442 281.372C120.932 280.994 120.824 280.309 121.201 279.843C121.509 279.463 122.045 279.346 122.509 279.522L123.316 278.524L120.673 276.563L119.866 277.561C120.16 277.947 120.175 278.474 119.867 278.854C119.491 279.32 118.771 279.391 118.261 279.013C117.751 278.635 117.643 277.95 118.019 277.484C118.327 277.103 118.864 276.986 119.328 277.162L120.135 276.164L117.491 274.203L116.684 275.201C116.979 275.588 116.994 276.114 116.686 276.495C116.309 276.961 115.59 277.032 115.08 276.653C114.57 276.275 114.461 275.59 114.838 275.124C115.146 274.744 115.682 274.627 116.147 274.803L116.953 273.805L114.31 271.844L113.503 272.842C113.797 273.228 113.813 273.755 113.505 274.135C113.128 274.601 112.408 274.672 111.898 274.294C111.388 273.916 111.28 273.231 111.657 272.765C111.965 272.384 112.501 272.267 112.965 272.443L113.772 271.445L111.246 269.571L74.6849 314.752L103.752 319.652L146.604 319.738L146.604 319.738Z" fill="#FFE1E1"/>
<path d="M105.125 287.191L105.09 287.229L139.638 312.988L139.673 312.95L105.125 287.191Z" fill="#8ABCE6"/>
<path d="M102.702 290.411L102.667 290.449L137.215 316.208L137.25 316.17L102.702 290.411Z" fill="#8ABCE6"/>
<path d="M100.279 293.631L100.244 293.67L134.793 319.429L134.828 319.391L100.279 293.631Z" fill="#8ABCE6"/>
<path d="M129.271 320.135L97.6863 296.85L97.6513 296.889L129.179 320.131L129.271 320.135Z" fill="#8ABCE6"/>
<path d="M116.262 198.425C115.917 197.333 115.4 196.412 114.699 195.662C114.011 194.913 113.233 194.407 112.363 194.129C111.506 193.853 110.64 193.849 109.764 194.132C109.486 194.218 109.277 194.293 109.151 194.356C110.09 193.843 110.741 193.006 111.058 191.842C111.375 190.678 111.349 189.488 110.968 188.285C110.66 187.29 110.015 186.501 109.061 185.907C108.092 185.326 106.978 184.971 105.69 184.843C104.402 184.728 103.146 184.861 101.922 185.24C100.587 185.657 99.2076 186.182 97.7691 186.814C96.3441 187.432 95.3452 188.08 94.7568 188.742L101.45 210.372L105.984 208.949C110.182 207.652 113.124 206.13 114.809 204.401C116.48 202.67 116.965 200.679 116.263 198.426L116.262 198.425ZM102.648 194L101.574 190.627C101.944 190.271 102.38 190.013 102.881 189.854C103.255 189.744 103.588 189.687 103.917 189.7H103.932C104.206 189.71 104.451 189.759 104.696 189.851C105.224 190.048 105.582 190.415 105.742 190.954C105.914 191.506 105.784 192.063 105.337 192.648C104.877 193.22 104.284 193.622 103.548 193.855C103.27 193.94 103.007 193.985 102.773 193.991C102.731 194.004 102.69 194.002 102.649 194H102.648ZM109.183 201.805C108.662 202.525 107.915 203.044 106.941 203.352C106.51 203.486 106.082 203.526 105.671 203.498C105.661 203.498 105.652 203.497 105.644 203.497L105.385 202.668L104.78 200.774L104.386 199.517C104.815 199.081 105.306 198.757 105.893 198.519C105.906 198.519 105.907 198.505 105.921 198.506C106.033 198.455 106.159 198.405 106.283 198.369C107.034 198.136 107.735 198.134 108.374 198.349C109.011 198.563 109.423 198.974 109.607 199.582C109.855 200.329 109.704 201.075 109.183 201.808V201.805Z" fill="#E05F24"/>
<path d="M70.0741 -15.98C76.2661 -11.0206 83.3699 -5.3122 85.4257 -3.65962C86.4817 -2.86689 87.2706 -2.25733 87.2706 -2.25733C87.2706 -2.25733 79.916 4.07044 76.4813 7.20568C71.5373 11.7186 66.7614 16.443 61.5629 20.6782C58.5575 23.1266 49.188 31.446 49.188 31.446C49.188 31.446 48.2655 30.8035 47.6555 30.3725C46.1554 31.7327 45.8769 31.9846 45.8769 31.9846L0.408908 -3.95492C0.408908 -3.95492 1.71325 -5.10111 3.66936 -6.82026L70.0741 -15.98Z" fill="#DAEBFF"/>
<path d="M70.3757 -16.0885C77.6616 -10.2466 86.099 -3.4549 86.099 -3.4549C86.099 -3.4549 78.9328 2.68142 75.2835 6.00161C70.0304 10.7814 45.8413 32.7321 45.8413 32.7321L0.418431 -4.22542C0.418431 -4.22542 1.59655 -5.26147 3.39231 -6.84122L70.3757 -16.0885Z" fill="#99D0FF"/>
<path d="M64.7164 -4.91861L73.5234 0.687729L47.534 23.8901L38.6099 18.2709L64.7164 -4.91861Z" fill="#6CA7F5"/>
<path d="M44.927 15.6326L62.7432 -2.21985L63.1402 -1.93128L45.3241 15.9212L44.927 15.6326Z" fill="white"/>
<path d="M47.5989 18.0226L65.415 0.170105L65.8121 0.458678L47.996 18.3112L47.5989 18.0226Z" fill="white"/>
<path d="M49.8133 20.219L67.6294 2.36652L68.0265 2.65509L50.2103 20.5076L49.8133 20.219Z" fill="white"/>
<path d="M89.2927 121.571L89.7006 120.662C89.4104 120.418 89.2992 120.017 89.4548 119.67C89.6456 119.246 90.1632 119.064 90.6119 119.263C91.0605 119.464 91.2694 119.97 91.0793 120.394C90.9236 120.741 90.5499 120.925 90.1735 120.873L89.7657 121.782L92.0892 122.818L92.4971 121.909C92.2069 121.664 92.0956 121.263 92.2513 120.917C92.4421 120.492 92.9597 120.31 93.4084 120.51C93.8569 120.71 94.0659 121.216 93.8757 121.641C93.7201 121.987 93.3463 122.172 92.97 122.119L92.5621 123.028L94.8857 124.064L95.2935 123.155C95.0033 122.911 94.8921 122.509 95.0477 122.163C95.2386 121.738 95.7562 121.557 96.2048 121.756C96.6534 121.957 96.8624 122.462 96.6722 122.887C96.5166 123.233 96.1428 123.418 95.7665 123.366L95.3586 124.275L97.6821 125.311L98.09 124.402C97.7998 124.157 97.6886 123.756 97.8442 123.409C98.035 122.985 98.5526 122.803 99.0013 123.003C99.4499 123.203 99.6588 123.709 99.4687 124.133C99.313 124.48 98.9393 124.665 98.5629 124.612L98.1551 125.521L100.479 126.557L100.886 125.648C100.596 125.404 100.485 125.002 100.641 124.656C100.832 124.231 101.349 124.049 101.798 124.249C102.246 124.449 102.455 124.955 102.265 125.38C102.109 125.726 101.736 125.911 101.359 125.858L100.952 126.767L103.275 127.803L103.683 126.894C103.393 126.65 103.281 126.249 103.437 125.902C103.628 125.478 104.146 125.296 104.594 125.495C105.043 125.696 105.252 126.201 105.062 126.626C104.906 126.973 104.532 127.157 104.156 127.105L103.748 128.014L106.072 129.05L106.479 128.141C106.189 127.896 106.078 127.495 106.234 127.149C106.424 126.724 106.942 126.542 107.391 126.742C107.839 126.941 108.048 127.448 107.858 127.872C107.702 128.219 107.329 128.404 106.952 128.351L106.544 129.26L108.868 130.296L109.276 129.387C108.986 129.143 108.874 128.741 109.03 128.395C109.221 127.97 109.739 127.789 110.187 127.988C110.636 128.188 110.845 128.694 110.655 129.119C110.499 129.465 110.125 129.65 109.749 129.598L109.341 130.506L111.664 131.542L112.072 130.634C111.782 130.389 111.671 129.988 111.827 129.641C112.017 129.217 112.535 129.035 112.984 129.235C113.432 129.435 113.641 129.941 113.451 130.365C113.295 130.712 112.922 130.896 112.545 130.844L112.137 131.753L114.461 132.789L114.869 131.88C114.579 131.636 114.467 131.234 114.623 130.888C114.814 130.463 115.331 130.281 115.78 130.481C116.229 130.681 116.438 131.187 116.247 131.612C116.092 131.958 115.718 132.143 115.342 132.09L114.934 132.999L117.257 134.035L117.665 133.126C117.375 132.882 117.264 132.481 117.419 132.134C117.61 131.71 118.128 131.528 118.577 131.727C119.025 131.928 119.234 132.433 119.044 132.858C118.888 133.205 118.515 133.389 118.138 133.337L117.73 134.246L120.054 135.282L120.462 134.373C120.172 134.128 120.06 133.727 120.216 133.381C120.407 132.956 120.924 132.774 121.373 132.974C121.822 133.174 122.031 133.68 121.84 134.104C121.685 134.451 121.311 134.636 120.935 134.583L120.527 135.492L122.85 136.528L123.258 135.619C122.968 135.375 122.857 134.973 123.012 134.627C123.203 134.202 123.721 134.021 124.17 134.22C124.618 134.42 124.827 134.926 124.637 135.351C124.481 135.697 124.107 135.882 123.731 135.829L123.323 136.738L125.647 137.774L126.055 136.865C125.764 136.621 125.653 136.22 125.809 135.873C126 135.449 126.517 135.267 126.966 135.467C127.415 135.667 127.624 136.173 127.433 136.597C127.278 136.944 126.904 137.128 126.528 137.076L126.12 137.985L128.34 138.975L148.975 93.0164L107.255 74.4204L86.6204 120.379L89.2934 121.571L89.2927 121.571Z" fill="#E3F7FF"/>
<path d="M98.2571 111.483L98.239 111.515L128.682 124.54L128.7 124.508L98.2571 111.483Z" fill="#8ABCE6"/>
<path d="M98.204 111.342L98.0986 111.529L128.737 124.68L128.842 124.493L98.204 111.342Z" fill="#8ABCE6"/>
<path d="M99.4822 108.654L99.4641 108.686L129.907 121.712L129.925 121.68L99.4822 108.654Z" fill="#8ABCE6"/>
<path d="M99.4281 108.514L99.3228 108.701L129.961 121.851L130.066 121.664L99.4281 108.514Z" fill="#8ABCE6"/>
<path d="M100.706 105.826L100.688 105.857L131.131 118.883L131.149 118.851L100.706 105.826Z" fill="#8ABCE6"/>
<path d="M100.652 105.685L100.547 105.872L131.185 119.022L131.29 118.835L100.652 105.685Z" fill="#8ABCE6"/>
<path d="M101.929 102.997L101.911 103.028L132.354 116.054L132.372 116.022L101.929 102.997Z" fill="#8ABCE6"/>
<path d="M101.876 102.857L101.771 103.044L132.408 116.194L132.514 116.007L101.876 102.857Z" fill="#8ABCE6"/>
<path d="M103.154 100.168L103.135 100.2L133.579 113.225L133.597 113.193L103.154 100.168Z" fill="#8ABCE6"/>
<path d="M103.1 100.028L102.995 100.215L133.633 113.365L133.738 113.179L103.1 100.028Z" fill="#8ABCE6"/>
<path d="M104.377 97.3384L104.359 97.3703L134.803 110.396L134.821 110.364L104.377 97.3384Z" fill="#8ABCE6"/>
<path d="M104.324 97.1987L104.219 97.3855L134.856 110.536L134.962 110.349L104.324 97.1987Z" fill="#8ABCE6"/>
<path d="M105.601 94.5097L105.583 94.5416L136.026 107.567L136.044 107.535L105.601 94.5097Z" fill="#8ABCE6"/>
<path d="M105.548 94.3698L105.442 94.5566L136.08 107.707L136.185 107.52L105.548 94.3698Z" fill="#8ABCE6"/>
<path d="M106.824 91.6808L106.806 91.7128L137.25 104.738L137.268 104.706L106.824 91.6808Z" fill="#8ABCE6"/>
<path d="M106.771 91.541L106.666 91.7278L137.303 104.878L137.409 104.691L106.771 91.541Z" fill="#8ABCE6"/>
<path d="M108.049 88.8522L108.031 88.884L138.474 101.91L138.492 101.878L108.049 88.8522Z" fill="#8ABCE6"/>
<path d="M138.534 102.046L138.435 102.005L107.888 88.9059L107.991 88.716L138.637 101.857L138.534 102.046Z" fill="#8ABCE6"/>
<path d="M109.272 86.0234L109.254 86.0553L139.697 99.0809L139.715 99.049L109.272 86.0234Z" fill="#8ABCE6"/>
<path d="M109.219 85.8836L109.114 86.0704L139.751 99.2209L139.857 99.0341L109.219 85.8836Z" fill="#8ABCE6"/>
<path d="M110.497 83.1948L110.479 83.2267L140.922 96.2523L140.94 96.2204L110.497 83.1948Z" fill="#8ABCE6"/>
<path d="M110.444 83.0543L110.338 83.2411L140.976 96.3915L141.081 96.2047L110.444 83.0543Z" fill="#8ABCE6"/>
<path d="M123.347 228.303L138.428 263.212L174.852 247.66L123.347 228.303ZM140.811 255.354L133.555 238.556L158.339 247.87L140.812 255.354H140.811Z" fill="#F8AA3D"/>
<path d="M176 247.636L138.201 263.775L122.551 227.547L176 247.636ZM173.699 247.686L124.14 229.058L138.652 262.651L173.698 247.686H173.699ZM159.488 247.845L140.586 255.916L132.759 237.799L159.488 247.845ZM157.187 247.896L134.349 239.312L141.037 254.792L157.187 247.896Z" fill="#FEB801"/>
<path d="M166.289 249.003L167.133 250.956C167.227 251.173 167.48 251.274 167.698 251.18C167.916 251.086 168.018 250.835 167.923 250.618L167.08 248.665C166.986 248.447 166.733 248.347 166.514 248.441C166.296 248.534 166.195 248.786 166.289 249.003Z" fill="#262626"/>
<path d="M163.518 250.186L164.361 252.139C164.456 252.356 164.709 252.457 164.927 252.363C165.145 252.269 165.246 252.018 165.152 251.801L164.309 249.848C164.215 249.63 163.961 249.53 163.743 249.624C163.525 249.717 163.424 249.969 163.518 250.186Z" fill="#262626"/>
<path d="M160.746 251.37L161.59 253.323C161.684 253.54 161.937 253.64 162.155 253.547C162.374 253.453 162.475 253.201 162.381 252.984L161.537 251.031C161.443 250.814 161.19 250.714 160.972 250.807C160.753 250.901 160.652 251.153 160.746 251.37Z" fill="#262626"/>
<path d="M157.975 252.552L158.818 254.505C158.913 254.722 159.166 254.823 159.384 254.729C159.602 254.636 159.703 254.384 159.609 254.167L158.766 252.214C158.672 251.997 158.419 251.896 158.2 251.99C157.982 252.084 157.881 252.335 157.975 252.552Z" fill="#262626"/>
<path d="M155.203 253.736L156.046 255.689C156.141 255.906 156.394 256.007 156.612 255.913C156.83 255.819 156.931 255.568 156.837 255.351L155.994 253.398C155.9 253.181 155.647 253.08 155.428 253.174C155.21 253.267 155.109 253.519 155.203 253.736Z" fill="#262626"/>
<path d="M152.433 254.919L153.277 256.872C153.371 257.089 153.624 257.19 153.842 257.096C154.061 257.002 154.162 256.751 154.067 256.534L153.224 254.581C153.13 254.364 152.877 254.263 152.658 254.357C152.44 254.45 152.339 254.702 152.433 254.919Z" fill="#262626"/>
<path d="M149.662 256.102L150.506 258.056C150.6 258.273 150.853 258.373 151.071 258.28C151.29 258.186 151.391 257.934 151.296 257.717L150.453 255.764C150.359 255.547 150.106 255.446 149.887 255.54C149.669 255.634 149.568 255.885 149.662 256.102Z" fill="#262626"/>
<path d="M146.89 257.285L147.733 259.239C147.827 259.456 148.08 259.556 148.299 259.462C148.517 259.369 148.618 259.117 148.524 258.9L147.681 256.947C147.586 256.73 147.333 256.629 147.115 256.723C146.897 256.817 146.796 257.068 146.89 257.285Z" fill="#262626"/>
<path d="M144.119 258.468L144.963 260.421C145.057 260.638 145.31 260.739 145.528 260.645C145.747 260.552 145.848 260.3 145.753 260.083L144.91 258.13C144.816 257.913 144.563 257.812 144.345 257.906C144.126 258 144.025 258.251 144.119 258.468Z" fill="#262626"/>
<path d="M141.348 259.652L142.191 261.605C142.286 261.822 142.539 261.923 142.757 261.829C142.975 261.735 143.077 261.484 142.982 261.267L142.139 259.314C142.045 259.097 141.792 258.996 141.573 259.09C141.355 259.183 141.254 259.435 141.348 259.652Z" fill="#262626"/>
</g>
</svg>
