<svg width="117" height="107" viewBox="0 0 117 107" fill="none" xmlns="http://www.w3.org/2000/svg">
<g opacity="0.1" clip-path="url(#clip0_122_3463)">
<path d="M87.8044 6.33606H64.3892V108.492H87.8044V6.33606Z" fill="#E42D27"/>
<path d="M81.7172 31.5274H70.3286V108.687H81.7172V31.5274Z" fill="#AB221D"/>
<path d="M76.0233 25.7558C79.1685 25.7558 81.7181 23.1955 81.7181 20.0371C81.7181 16.8788 79.1685 14.3185 76.0233 14.3185C72.8782 14.3185 70.3286 16.8788 70.3286 20.0371C70.3286 23.1955 72.8782 25.7558 76.0233 25.7558Z" fill="#AB221D"/>
<path d="M61.3351 0H37.9199V108.491H61.3351V0Z" fill="#EEC957"/>
<g style="mix-blend-mode:multiply">
<path d="M59.4575 4.34192H40.0444V8.914H59.4575V4.34192Z" fill="#EEC957"/>
</g>
<g style="mix-blend-mode:multiply">
<path d="M59.4575 11.0468H40.0444V15.6188H59.4575V11.0468Z" fill="#EEC957"/>
</g>
<g style="mix-blend-mode:multiply">
<path d="M59.4575 17.7516H40.0444V22.3237H59.4575V17.7516Z" fill="#EEC957"/>
</g>
<g style="mix-blend-mode:multiply">
<path d="M53.8999 99.7995C53.8999 100.328 53.7976 100.821 53.5922 101.279C53.3868 101.737 53.1018 102.136 52.7371 102.476C52.3724 102.817 51.9516 103.084 51.4738 103.277C50.9968 103.47 50.4854 103.567 49.9413 103.567C49.3972 103.567 48.8582 103.466 48.3787 103.264C47.9 103.061 47.4825 102.784 47.1262 102.433C46.7708 102.081 46.4941 101.679 46.2963 101.225C46.0984 100.771 45.9995 100.291 45.9995 99.7844C45.9995 99.2082 46.1336 98.6596 46.4027 98.1388C46.671 97.6172 47.06 97.1695 47.568 96.794L48.009 97.6139C47.6535 97.8944 47.3811 98.227 47.1924 98.6118C47.0038 98.9965 46.9091 99.3913 46.9091 99.7953C46.9091 100.199 46.9871 100.547 47.143 100.892C47.2989 101.236 47.5169 101.54 47.796 101.805C48.0752 102.069 48.3988 102.276 48.7651 102.425C49.1315 102.575 49.5297 102.65 49.9572 102.65C50.3848 102.65 50.7671 102.575 51.1334 102.425C51.4998 102.276 51.8225 102.071 52.1 101.81C52.3775 101.55 52.5946 101.247 52.7505 100.9C52.9065 100.554 52.9844 100.183 52.9844 99.7903C52.9844 99.477 52.9316 99.1788 52.8268 98.8965C52.7212 98.6143 52.5728 98.3539 52.38 98.1145C52.188 97.8759 51.9608 97.6718 51.6993 97.5021C51.4377 97.3325 51.151 97.2039 50.8392 97.1166V99.0032H50.0226V96.0456C50.5558 96.049 51.0571 96.1506 51.5249 96.3488C51.9935 96.5479 52.4051 96.8192 52.7606 97.1636C53.116 97.508 53.3952 97.9053 53.5964 98.3556C53.7976 98.8058 53.8982 99.288 53.8982 99.802L53.8999 99.7995Z" fill="#EEC957"/>
<path d="M53.7583 92.3421H46.1362V89.6575C46.1362 89.2459 46.236 88.8746 46.4355 88.5445C46.635 88.2144 46.905 87.9531 47.2437 87.7599C47.5832 87.5667 47.9613 87.4701 48.3787 87.4701C48.7451 87.4701 49.0796 87.5432 49.3805 87.6885C49.6815 87.8347 49.933 88.0338 50.135 88.2875C50.3362 88.5411 50.4754 88.8276 50.5517 89.1485L53.7583 87.2896V88.3505L50.628 90.1707V91.4282H53.7583V92.3413V92.3421ZM49.7134 91.429V89.7448C49.7134 89.497 49.653 89.2703 49.5306 89.0645C49.409 88.8587 49.2439 88.6948 49.0351 88.5722C48.8264 88.4504 48.5917 88.3891 48.3301 88.3891C48.0686 88.3891 47.828 88.4504 47.6192 88.5722C47.4105 88.694 47.2453 88.8587 47.1238 89.0645C47.0022 89.2703 46.941 89.497 46.941 89.7448V91.429H49.7125H49.7134Z" fill="#EEC957"/>
<path d="M46.1362 80.9157V79.806L53.7583 77.0231V77.9967L52.2015 78.5654V82.1572L53.7583 82.72V83.6985L46.1362 80.9157ZM51.2869 81.8178V78.9039L47.3065 80.3638L51.2869 81.8178Z" fill="#EEC957"/>
<path d="M53.7583 73.3053L46.1362 71.8235V71.118L51.5484 69.0516L46.1362 66.9902V66.2846L53.7583 64.7979V65.7328L48.2262 66.8096L53.3441 68.7509V69.3573L48.2262 71.2986L53.7583 72.3704V73.3053Z" fill="#EEC957"/>
<path d="M53.7583 60.8608L46.1362 59.3791V58.6735L51.5484 56.6071L46.1362 54.5458V53.8402L53.7583 52.3534V53.2883L48.2262 54.3652L53.3441 56.3064V56.9137L48.2262 58.8549L53.7583 59.9268V60.8617V60.8608Z" fill="#EEC957"/>
<path d="M46.1362 45.8535V44.7439L53.7583 41.961V42.9345L52.2015 43.5032V47.095L53.7583 47.6578V48.6364L46.1362 45.8535ZM51.2869 46.7548V43.8409L47.3065 45.3008L51.2869 46.7548Z" fill="#EEC957"/>
<path d="M53.7583 38.15H46.1362V35.4654C46.1362 35.0538 46.236 34.6825 46.4355 34.3524C46.635 34.0222 46.905 33.761 47.2437 33.5678C47.5832 33.3746 47.9613 33.278 48.3787 33.278C48.7451 33.278 49.0796 33.3511 49.3805 33.4964C49.6815 33.6426 49.933 33.8416 50.135 34.0953C50.3362 34.349 50.4754 34.6354 50.5517 34.9563L53.7583 33.0974V34.1583L50.628 35.9786V37.2361H53.7583V38.1491V38.15ZM49.7134 37.2369V35.5527C49.7134 35.3049 49.653 35.0781 49.5306 34.8723C49.409 34.6665 49.2439 34.5027 49.0351 34.3801C48.8264 34.2583 48.5917 34.197 48.3301 34.197C48.0686 34.197 47.828 34.2583 47.6192 34.3801C47.4105 34.5019 47.2453 34.6665 47.1238 34.8723C47.0022 35.0781 46.941 35.3049 46.941 35.5527V37.2369H49.7125H49.7134Z" fill="#EEC957"/>
</g>
<path d="M37.0644 7.40298L13.8413 4.39734L-0.0286825 111.991L23.1944 114.997L37.0644 7.40298Z" fill="#689893"/>
<path d="M25.2629 5.87494L37.0338 7.39869L23.2232 115L10.4438 113.346L25.2629 5.87494Z" fill="#86ADA9"/>
<g style="mix-blend-mode:multiply">
<path d="M34.0639 10.324L15.9224 7.97601L14.2609 20.8645L32.4024 23.2124L34.0639 10.324Z" fill="#689893"/>
</g>
<path d="M32.0136 26.2756L13.8721 23.9277L13.3808 27.739L31.5223 30.0869L32.0136 26.2756Z" fill="#FAF1E2"/>
<path d="M114.612 0H91.1973V108.491H114.612V0Z" fill="#919B56"/>
<path d="M114.612 0H102.905V108.491H114.612V0Z" fill="#A7AF78"/>
<path d="M111.312 6.62836H94.6187V31.5283H111.312V6.62836Z" fill="#050101"/>
<mask id="mask0_122_3463" style="mask-type:luminance" maskUnits="userSpaceOnUse" x="102" y="0" width="13" height="109">
<path d="M114.612 0H102.905V108.491H114.612V0Z" fill="white"/>
</mask>
<g mask="url(#mask0_122_3463)">
<path d="M113.404 102.052L113.775 101.363C114.065 101.571 114.296 101.836 114.471 102.156C114.644 102.476 114.731 102.823 114.731 103.196C114.731 103.619 114.623 104.005 114.406 104.352C114.19 104.7 113.899 104.977 113.534 105.184C113.169 105.39 112.766 105.494 112.324 105.494C111.988 105.494 111.675 105.434 111.383 105.315C111.091 105.196 110.836 105.031 110.614 104.821C110.393 104.611 110.22 104.367 110.095 104.088C109.97 103.809 109.907 103.511 109.907 103.196C109.907 102.822 109.994 102.475 110.167 102.155C110.341 101.835 110.575 101.57 110.867 101.362L111.238 102.052C111.058 102.199 110.919 102.373 110.821 102.576C110.724 102.778 110.675 102.985 110.675 103.196C110.675 103.481 110.75 103.74 110.901 103.971C111.052 104.202 111.253 104.385 111.503 104.52C111.753 104.655 112.026 104.723 112.322 104.723C112.618 104.723 112.89 104.655 113.139 104.519C113.388 104.382 113.587 104.199 113.736 103.967C113.885 103.736 113.961 103.479 113.961 103.196C113.961 102.97 113.909 102.757 113.805 102.557C113.701 102.358 113.567 102.189 113.403 102.052L113.404 102.052Z" fill="white"/>
<path d="M110.035 94.5831V93.8112H114.612V94.5882L113.838 94.6159C114.104 94.7595 114.319 94.9586 114.484 95.2114C114.648 95.4643 114.731 95.7641 114.731 96.1102C114.731 96.4563 114.668 96.7679 114.541 97.0619C114.414 97.3559 114.239 97.6155 114.015 97.8406C113.79 98.0657 113.532 98.2413 113.239 98.3673C112.946 98.4933 112.63 98.5554 112.292 98.5554C111.953 98.5554 111.657 98.4941 111.367 98.3715C111.077 98.2488 110.823 98.0783 110.605 97.8591C110.387 97.6398 110.216 97.3862 110.092 97.098C109.969 96.8099 109.907 96.5025 109.907 96.174C109.907 95.8095 109.991 95.4903 110.161 95.2156C110.33 94.9418 110.549 94.7217 110.817 94.5562L110.034 94.5839L110.035 94.5831ZM113.985 96.0909C113.985 95.7843 113.909 95.5205 113.756 95.3005C113.604 95.0795 113.399 94.9124 113.143 94.7973C112.886 94.6822 112.603 94.631 112.291 94.6436C111.986 94.6562 111.71 94.7276 111.463 94.8595C111.215 94.9913 111.019 95.1686 110.874 95.3929C110.729 95.6163 110.657 95.8767 110.657 96.174C110.657 96.4714 110.733 96.7528 110.886 97.0014C111.038 97.2492 111.243 97.4433 111.5 97.5827C111.756 97.7222 112.041 97.786 112.355 97.7734C112.657 97.7583 112.932 97.6726 113.18 97.5164C113.427 97.3601 113.623 97.1568 113.768 96.9074C113.913 96.6579 113.985 96.3857 113.985 96.0917V96.0909Z" fill="white"/>
<path d="M114.612 90.4235H107.747V89.6557H114.612V90.4235Z" fill="white"/>
<path d="M114.612 86.1907H107.747V85.423H114.612V86.1907Z" fill="white"/>
<path d="M109.198 81.6447C109.198 81.764 109.158 81.8656 109.079 81.948C108.999 82.0311 108.9 82.0723 108.781 82.0723C108.662 82.0723 108.563 82.0311 108.483 81.948C108.404 81.8656 108.364 81.764 108.364 81.6447C108.364 81.5254 108.404 81.4238 108.483 81.3415C108.563 81.2583 108.662 81.2172 108.781 81.2172C108.9 81.2172 108.999 81.2583 109.079 81.3415C109.158 81.4238 109.198 81.5254 109.198 81.6447ZM110.035 82.0353V81.2634H114.612V82.0353H110.035Z" fill="white"/>
<path d="M110.035 74.1117V73.3397H114.759C115.061 73.3397 115.343 73.4052 115.603 73.5354C115.864 73.6656 116.091 73.8412 116.285 74.0621C116.479 74.283 116.63 74.5342 116.739 74.8156C116.847 75.0978 116.901 75.3918 116.901 75.6984C116.901 76.005 116.83 76.3251 116.688 76.6224C116.547 76.9198 116.357 77.1793 116.121 77.4019C115.884 77.6245 115.619 77.7841 115.327 77.8824L115.007 77.1743C115.217 77.1163 115.407 77.0113 115.577 76.8593C115.746 76.7073 115.88 76.53 115.979 76.3259C116.078 76.1218 116.127 75.9126 116.127 75.6984C116.127 75.496 116.092 75.3011 116.022 75.1121C115.951 74.924 115.855 74.7534 115.731 74.6022C115.608 74.4502 115.463 74.3309 115.296 74.2436C115.13 74.1562 114.95 74.1125 114.758 74.1125H113.846C114.109 74.2688 114.322 74.4746 114.485 74.7307C114.649 74.9869 114.73 75.2843 114.73 75.6245C114.73 75.9647 114.667 76.2545 114.542 76.5393C114.417 76.824 114.244 77.0743 114.022 77.2885C113.801 77.5027 113.545 77.6716 113.255 77.7942C112.965 77.9168 112.654 77.9782 112.321 77.9782C111.989 77.9782 111.677 77.9168 111.385 77.7942C111.093 77.6716 110.838 77.5027 110.616 77.2885C110.395 77.0743 110.222 76.824 110.096 76.5393C109.972 76.2545 109.909 75.9496 109.909 75.6245C109.909 75.2994 109.989 74.9861 110.151 74.7307C110.313 74.4754 110.527 74.2688 110.791 74.1125H110.032L110.035 74.1117ZM113.985 75.6186C113.985 75.3213 113.909 75.0634 113.757 74.8442C113.604 74.6249 113.401 74.4561 113.148 74.336C112.895 74.2167 112.62 74.157 112.324 74.157C112.028 74.157 111.74 74.2175 111.489 74.3385C111.237 74.4594 111.035 74.63 110.884 74.8483C110.734 75.0676 110.658 75.3238 110.658 75.6186C110.658 75.9135 110.733 76.1705 110.883 76.4091C111.032 76.6485 111.233 76.8375 111.485 76.9769C111.736 77.1163 112.016 77.1861 112.325 77.1861C112.633 77.1861 112.913 77.1146 113.165 76.9727C113.416 76.8299 113.617 76.6401 113.764 76.4023C113.913 76.1646 113.986 75.9034 113.986 75.6186H113.985Z" fill="white"/>
<path d="M110.796 67.401C110.753 67.4774 110.719 67.5606 110.695 67.6488C110.671 67.7378 110.658 67.8344 110.658 67.9386C110.658 68.1931 110.727 68.419 110.864 68.6164C111.002 68.8138 111.188 68.9692 111.423 69.0826C111.657 69.196 111.917 69.2523 112.201 69.2523H114.612V70.0293H110.035V69.2574H110.74C110.484 69.0919 110.282 68.8869 110.133 68.6416C109.986 68.3964 109.911 68.1251 109.911 67.8277C109.911 67.7269 109.915 67.6303 109.925 67.5379C109.934 67.4463 109.952 67.359 109.98 67.2758L110.795 67.4001L110.796 67.401Z" fill="white"/>
<path d="M110.035 60.6348V59.8629H114.612V60.6398L113.838 60.6676C114.104 60.8112 114.319 61.0103 114.484 61.2631C114.648 61.516 114.731 61.8158 114.731 62.1619C114.731 62.508 114.668 62.8196 114.541 63.1136C114.414 63.4076 114.239 63.6672 114.015 63.8931C113.79 64.1183 113.532 64.2938 113.239 64.4198C112.946 64.5458 112.63 64.608 112.292 64.608C111.953 64.608 111.657 64.5467 111.367 64.424C111.077 64.3014 110.823 64.1309 110.605 63.9116C110.387 63.6924 110.216 63.4387 110.092 63.1506C109.969 62.8625 109.907 62.555 109.907 62.2266C109.907 61.862 109.991 61.5428 110.161 61.2682C110.33 60.9943 110.549 60.7742 110.817 60.6088L110.034 60.6365L110.035 60.6348ZM113.985 62.1426C113.985 61.836 113.909 61.5722 113.756 61.3522C113.604 61.1312 113.399 60.9641 113.143 60.849C112.886 60.7339 112.603 60.6827 112.291 60.6953C111.986 60.7079 111.71 60.7793 111.463 60.9112C111.215 61.043 111.019 61.2203 110.874 61.4446C110.729 61.668 110.657 61.9284 110.657 62.2258C110.657 62.5231 110.733 62.8045 110.886 63.0531C111.038 63.3018 111.243 63.495 111.5 63.6344C111.756 63.7739 112.041 63.8377 112.355 63.8251C112.657 63.81 112.932 63.7243 113.18 63.5681C113.427 63.4118 113.623 63.2085 113.768 62.9591C113.913 62.7096 113.985 62.4374 113.985 62.1434V62.1426Z" fill="white"/>
<path d="M116.901 55.7814V56.5533H110.035V55.7814H110.818C110.55 55.6251 110.332 55.4168 110.166 55.1564C110 54.896 109.916 54.5861 109.916 54.2282C109.916 53.8939 109.979 53.5806 110.104 53.2883C110.229 52.996 110.402 52.7389 110.624 52.518C110.845 52.2971 111.101 52.124 111.391 51.9989C111.681 51.8729 111.992 51.8107 112.325 51.8107C112.657 51.8107 112.97 51.8737 113.263 51.9989C113.556 52.1249 113.813 52.2979 114.034 52.518C114.255 52.7389 114.429 52.9951 114.554 53.2883C114.679 53.5806 114.741 53.8939 114.741 54.2282C114.741 54.5869 114.658 54.896 114.492 55.1564C114.326 55.4168 114.108 55.6251 113.839 55.7814H116.902H116.901ZM110.662 54.2366C110.662 54.534 110.737 54.7944 110.887 55.0178C111.036 55.2413 111.236 55.4143 111.486 55.5353C111.737 55.6562 112.016 55.7167 112.324 55.7167C112.631 55.7167 112.908 55.6562 113.161 55.5353C113.414 55.4143 113.616 55.2429 113.766 55.0203C113.915 54.7986 113.989 54.5373 113.989 54.2366C113.989 53.9359 113.916 53.6663 113.767 53.4185C113.62 53.1698 113.419 52.9708 113.168 52.8212C112.916 52.6709 112.635 52.5961 112.324 52.5961C112.013 52.5961 111.74 52.67 111.489 52.817C111.237 52.964 111.036 53.1614 110.887 53.4101C110.738 53.6587 110.662 53.9342 110.662 54.2375V54.2366Z" fill="white"/>
<path d="M112.182 44.5431H114.612V45.315H112.201C111.917 45.315 111.657 45.3738 111.423 45.4923C111.188 45.6099 111.002 45.7695 110.864 45.9702C110.727 46.171 110.658 46.3928 110.658 46.6347C110.658 46.8892 110.727 47.1118 110.864 47.3033C111.002 47.4948 111.188 47.6435 111.423 47.7493C111.657 47.8552 111.917 47.9081 112.201 47.9081H114.612V48.6851H107.747V47.9131H110.676C110.407 47.7695 110.213 47.5822 110.092 47.352C109.971 47.1219 109.911 46.8615 109.911 46.5708C109.911 46.1693 110.015 45.8182 110.222 45.5158C110.43 45.2142 110.706 44.9782 111.05 44.8077C111.395 44.638 111.772 44.5498 112.181 44.5431H112.182Z" fill="white"/>
<path d="M110.035 38.2683V37.4502L116.901 39.9643V40.7824L114.612 39.9509L110.035 41.6014V40.7556L113.555 39.5653L110.035 38.2692V38.2683Z" fill="white"/>
</g>
</g>
<defs>
<clipPath id="clip0_122_3463">
<rect width="116.901" height="115" fill="white"/>
</clipPath>
</defs>
</svg>
