<svg width="115" height="159" viewBox="0 0 115 159" fill="none" xmlns="http://www.w3.org/2000/svg">
<g opacity="0.1" clip-path="url(#clip0_122_3615)">
<path d="M80.5645 111.874V111.014L113.704 101.097H115V117.667H113.704L80.5645 111.874Z" fill="#4A28C6"/>
<path d="M115 168.043L13.4523 149.496C7.89746 148.481 3.52819 145.787 1.76562 142.288C0.682792 140.14 0.682792 137.865 1.76404 135.706C3.12509 132.99 6.05111 130.745 10.0062 129.385C14.0024 128.011 18.6056 127.693 22.967 128.49L83.9756 139.839C90.5326 141.038 97.2525 138.649 99.2727 134.403C100.073 132.722 100.043 130.954 99.1842 129.291C97.8595 126.727 94.6948 124.763 90.7207 124.037L49.7802 116.358C47.2983 115.904 45.3319 114.716 44.5209 113.18C44.0419 112.272 44.0103 111.304 44.4308 110.384C45.6211 107.767 49.9778 106.258 54.1415 107.019L80.2117 111.781C80.4694 111.83 80.716 111.659 80.7634 111.403C80.8108 111.147 80.6401 110.903 80.3824 110.856L54.3123 106.094C49.6679 105.245 44.9461 106.96 43.5645 109.996C43.0208 111.191 43.0603 112.443 43.6799 113.618C44.6253 115.409 46.8415 116.78 49.6047 117.285L90.5453 124.962C94.2332 125.637 97.1482 127.415 98.3385 129.721C99.0578 131.114 99.0846 132.593 98.4144 134.001C96.5981 137.816 90.1975 140.02 84.1479 138.914L23.1393 127.564C13.71 125.841 3.9471 129.233 0.913586 135.286C-0.305194 137.719 -0.303613 140.285 0.916747 142.706C2.8121 146.468 7.43429 149.352 13.28 150.418L115 168.997V168.04V168.043Z" fill="#989898"/>
<path d="M95.3286 80.7098L65.542 80.6549L65.8012 0L95.5878 0.0564646L95.3286 80.7098Z" fill="#F26522"/>
<path d="M79.788 111.528L65.542 80.6549L73.0175 71.3916L80.5657 76.0374L87.8894 71.4198L95.3286 80.7114L80.9656 111.532C80.7333 112.03 80.0188 112.029 79.788 111.53V111.528Z" fill="#FFE68B"/>
<path d="M73.8804 98.7267L79.7877 111.528C80.0185 112.027 80.733 112.029 80.9654 111.53L86.9218 98.7502L73.882 98.7252L73.8804 98.7267Z" fill="black"/>
<path d="M87.8881 71.3979C87.8786 76.522 84.5416 80.669 80.4347 80.6612C76.3279 80.6533 73.0066 76.4938 73.0161 71.3696L87.8881 71.3979Z" fill="#F26522"/>
<path d="M95.3063 80.7098C91.1994 80.702 87.8782 76.5424 87.8877 71.4183L95.3237 71.4324L95.3063 80.7098Z" fill="#F26522"/>
<path d="M65.542 80.6549C69.6489 80.6628 72.9859 76.5158 72.9954 71.3916L65.5594 71.3775L65.542 80.6549Z" fill="#F26522"/>
<path d="M73.0176 71.6143C72.899 71.6143 72.8042 71.5187 72.8042 71.4026L73.0445 0.0125732H73.4713L73.2294 71.4026C73.2294 71.5187 73.133 71.6143 73.016 71.6143H73.0176Z" fill="black"/>
<path d="M87.8882 71.641C87.7696 71.641 87.6748 71.5454 87.6748 71.4293L87.9167 0.0408325H88.3435L88.1016 71.4309C88.1016 71.5469 88.0052 71.6426 87.8882 71.6426V71.641Z" fill="black"/>
</g>
<defs>
<clipPath id="clip0_122_3615">
<rect width="115" height="169" fill="white"/>
</clipPath>
</defs>
</svg>
