<svg width="66" height="159" viewBox="0 0 66 159" fill="none" xmlns="http://www.w3.org/2000/svg">
<g opacity="0.1" clip-path="url(#clip0_122_3230)">
<path d="M66.4463 154.381H33.3599V190.091H66.4463V154.381Z" fill="#050101"/>
<path d="M66.4451 0.0953979H33.2129V50.9133H66.4451V0.0953979Z" fill="#EEC957"/>
<path d="M33.379 114.055H0V214.984H33.379V114.055Z" fill="#919B56"/>
<path d="M33.3824 147.842H0.00341797V214.984H33.3824V147.842Z" fill="#050101"/>
<path d="M0.00341797 180.331L33.3824 158.724V214.984H0.00341797V180.331Z" fill="#689893"/>
<path d="M33.3757 -40.3472H0.143555V117.215H33.3757V-40.3472Z" fill="#689893"/>
<path d="M8.45186 -40.3472H0.143555V117.215H8.45186V-40.3472Z" fill="#050101"/>
<path d="M25.0686 -40.3472H16.7603V117.215H25.0686V-40.3472Z" fill="#050101"/>
<path d="M0.143555 117.215L16.7602 147.786L33.3757 117.215H0.143555Z" fill="white"/>
<path d="M27.2651 128.457H6.25391L16.76 147.786L27.2651 128.457Z" fill="#E42D27"/>
<path d="M33.3779 43.2231H66.4463V158.396C66.4463 165.476 60.6975 171.225 53.6168 171.225H46.2074C39.1267 171.225 33.3779 165.476 33.3779 158.396V43.2231Z" fill="#E42D27"/>
<path d="M49.9116 0.0953979C45.5117 3.88254 45.9957 15.6057 45.9957 15.6057H53.8264C53.8264 15.6057 54.3115 3.8836 49.9105 0.0953979H49.9116Z" fill="#E42D27"/>
<path d="M56.438 21.3236V14.6131H43.3851V21.3225C43.3851 36.1445 33.3779 31.5371 33.3779 43.4549H66.4463C66.4463 31.5382 56.4391 36.1445 56.4391 21.3236H56.438Z" fill="#050101"/>
<path d="M55.8028 58.1184H43.6733V145.717H55.8028V58.1184Z" fill="#AB221D"/>
</g>
<defs>
<clipPath id="clip0_122_3230">
<rect width="66.4462" height="432" fill="white" transform="translate(0 -57)"/>
</clipPath>
</defs>
</svg>
