<svg width="231" height="149" viewBox="0 0 231 149" fill="none" xmlns="http://www.w3.org/2000/svg">
<g opacity="0.1">
<path d="M0.5 149.5L148.377 21.4803L191.935 65.6643L173.5 149.5H115H0.5Z" fill="#DBDBDB"/>
<path d="M219.616 140.778C221.178 140.778 222.565 139.651 222.855 138.042L235.701 66.8541C236.028 65.0422 234.841 63.3045 233.05 62.9743C231.259 62.6433 229.541 63.844 229.215 65.6567L216.369 136.844C216.042 138.656 217.229 140.394 219.02 140.724C219.221 140.761 219.42 140.779 219.616 140.779V140.778Z" fill="#AB221D"/>
<path d="M232.461 69.5908C233.011 69.5908 233.567 69.4515 234.08 69.1589C235.665 68.2525 236.224 66.2179 235.328 64.6145L206.453 12.9052C205.557 11.3018 203.546 10.7356 201.961 11.642C200.377 12.5483 199.817 14.5829 200.713 16.1863L229.588 67.8956C230.194 68.9813 231.311 69.5908 232.461 69.5908Z" fill="#E42D27"/>
<path d="M232.459 78.0925C225.996 78.0925 220.758 72.7925 220.758 66.2546C220.758 59.7167 225.996 54.4167 232.459 54.4167C238.921 54.4167 244.159 59.7167 244.159 66.2546C244.159 72.7925 238.921 78.0925 232.459 78.0925Z" fill="#E42D27"/>
<path d="M232.459 71.582C229.551 71.582 227.193 69.1968 227.193 66.2546C227.193 63.3124 229.551 60.9272 232.459 60.9272C235.367 60.9272 237.724 63.3124 237.724 66.2546C237.724 69.1968 235.367 71.582 232.459 71.582Z" fill="white"/>
<path d="M205.349 129.914C201.935 129.914 199.164 132.718 199.164 136.171V137.524H211.533V136.171C211.533 132.717 208.762 129.914 205.349 129.914Z" fill="#AB221D"/>
<path d="M190.806 136.068H257V149H190.806V136.068Z" fill="#E42D27"/>
<path d="M159.13 53.3475C153.32 47.4695 153.32 37.9394 159.13 32.0614C164.94 26.1835 174.359 26.1835 180.169 32.0614C185.979 37.9394 185.979 47.4695 180.169 53.3475C174.359 59.2255 164.94 59.2255 159.13 53.3475Z" fill="#EEC957"/>
<path d="M210.283 3.08099C206.241 -1.01897 199.679 -1.02731 195.627 3.06181L180.241 18.5869L194.879 33.4342L210.264 17.909C214.317 13.8199 214.325 7.18094 210.283 3.08099Z" fill="#AB221D"/>
<path d="M148.377 21.4804L191.935 65.6635L193.172 64.4161C203.803 53.688 203.826 36.2717 193.222 25.5161L188.063 20.2838C177.46 9.5282 160.245 9.50485 149.614 20.2329L148.378 21.4804H148.377Z" fill="#E42D27"/>
</g>
</svg>
